{"title":"Sondhye Namar Aage (2014) - 720p - DVDRip - x264 - AC3 [DDR]","uid":12969858,"size":3553533330,"categoryP":"video","categoryS":"hd___movies","magnet":"?xt=urn:btih:e1a9048d702f8f22b6dec609967a6ed1f3aff384&amp;dn=Sondhye+Namar+Aage+%282014%29+-+720p+-+DVDRip+-+x264+-+AC3+%5BDDR%5D&amp;tr=udp%3A%2F%2Ftracker.leechers-paradise.org%3A6969&amp;tr=udp%3A%2F%2Fzer0day.ch%3A1337&amp;tr=udp%3A%2F%2Fopen.demonii.com%3A1337&amp;tr=udp%3A%2F%2Ftracker.coppersurfer.tk%3A6969&amp;tr=udp%3A%2F%2Fexodus.desync.com%3A6969","seeders":0,"leechers":1,"uploader":"SaM","files":20,"time":1449933408,"description":"\n( A film by Ritabrata Bhattacharya, Suspense Thriller Movie )\r\n\r\n\r\n\r\n\r\nUpscaled DVD Rip - 720p - x264 - 3.24 GB\r\n\r\n2.1 AC3 - No Sub - MKV\r\n\r\n*2014*\r\n\r\n\r\n! || |= ®\r\n\r\n\r\n\r\nFormat : Matroska\r\nFormat version : Version 4 / Version 2\r\nFile size : 3.25 GiB\r\nDuration : 2h 8mn\r\nOverall bit rate mode : Variable\r\nOverall bit rate : 3 611 Kbps\r\nEncoded date : UTC 2015-12-12 08:36:15\r\nWriting application : mkvmerge v8.2.0 ('World of Adventure') 32bit\r\nWriting library : libebml v1.3.1 + libmatroska v1.4.2\r\nDURATION : 02:08:45.856000000\r\nNUMBER_OF_FRAMES : 241433\r\nNUMBER_OF_BYTES : 247227392\r\n_STATISTICS_WRITING_APP : mkvmerge v8.2.0 ('World of Adventure') 32bit\r\n_STATISTICS_WRITING_DATE_UTC : 2015-12-12 08:36:15\r\n_STATISTICS_TAGS : BPS DURATION NUMBER_OF_FRAMES NUMBER_OF_BYTES\r\n\r\nVideo\r\nID : 1\r\nFormat : AVC\r\nFormat/Info : Advanced Video Codec\r\nFormat profile :   \r\nFormat settings, CABAC : Yes\r\nFormat settings, ReFrames : 8 frames\r\nCodec ID : V_MPEG4/ISO/AVC\r\nDuration : 2h 8mn\r\nBit rate mode : Variable\r\nBit rate : 3 283 Kbps\r\nMaximum bit rate : 40.0 Mbps\r\nWidth : 1 280 pixels\r\nHeight : 568 pixels\r\nDisplay aspect ratio : 2.25:1\r\nFrame rate mode : Constant\r\nFrame rate : 25.000 fps\r\nColor space : YUV\r\nChroma subsampling : 4:2:0\r\nBit depth : 8 bits\r\nScan type : Progressive\r\nBits/(Pixel*Frame) : 0.181\r\nStream size : 2.95 GiB (91%)\r\nTitle : Sondhye Namar Aage (2014) - 720p - DVDRip - x264 - AC3 [DDR]\r\nLanguage : Bengali\r\nDefault : Yes\r\nForced : No\r\n\r\nAudio\r\nID : 2\r\nFormat : AC-3\r\nFormat/Info : Audio Coding 3\r\nMode extension : CM (complete main)\r\nFormat settings, Endianness : Big\r\nCodec ID : A_AC3\r\nDuration : 2h 8mn\r\nBit rate mode : Constant\r\nBit rate : 256 Kbps\r\nChannel(s) : 2 channels\r\nChannel positions : Front: L R\r\nSampling rate : 48.0 KHz\r\nCompression mode : Lossy\r\nStream size : 236 MiB (7%)\r\nTitle : 2.1 AC3 [DDR]\r\nLanguage : Bengali\r\nDefault : Yes\r\nForced : No\r\n\r\n\r\n \nhttp://extraimago.com/image/Pu0 \nhttp://extraimago.com/image/Puz \nhttp://extraimago.com/image/PuU \nhttp://extraimago.com/image/PuM \nhttp://extraimago.com/image/Pu9 \nhttp://extraimago.com/image/Pu3 \nhttp://extraimago.com/image/Pub \nhttp://extraimago.com/image/Puh \nhttp://extraimago.com/image/Pud \nhttp://extraimago.com/image/PuI \nhttp://extraimago.com/image/Pul \nhttp://extraimago.com/image/Pui \nhttp://extraimago.com/image/Pum \nhttp://extraimago.com/image/PuR \nhttp://extraimago.com/image/PuQ \nhttp://extraimago.com/image/PuL\r\n\r\nMake sure it is Genuine DDR release @ ExtraTorrent.com\r\n     \nhttp://extratorrent.cc/     \nhttp://extratorrent.com/     \nhttp://extratorrent.ws/     \nhttp://etproxy.com/     \nhttp://extratorrentlive.com/     \nhttp://extratorrentonline.com/     \nhttp://etmirror.com/     \nhttp://extratorrent.works/\r\n\r\nShare your Images with:\r\n     \nhttp://extraimago.com/\r\n\r\nHelp us by donating with Bitcoin: 1XeH1kKXWYbzZcFHokGiZ4d3MWW5WyXzU","torrent":{"xt":"urn:btih:e1a9048d702f8f22b6dec609967a6ed1f3aff384","amp;dn":"Sondhye+Namar+Aage+%282014%29+-+720p+-+DVDRip+-+x264+-+AC3+%5BDDR%5D","amp;tr":["udp%3A%2F%2Ftracker.leechers-paradise.org%3A6969","udp%3A%2F%2Fzer0day.ch%3A1337","udp%3A%2F%2Fopen.demonii.com%3A1337","udp%3A%2F%2Ftracker.coppersurfer.tk%3A6969","udp%3A%2F%2Fexodus.desync.com%3A6969"],"infoHash":"e1a9048d702f8f22b6dec609967a6ed1f3aff384","infoHashBuffer":{"type":"Buffer","data":[225,169,4,141,112,47,143,34,182,222,198,9,150,122,110,209,243,175,243,132]},"announce":[],"urlList":[]}}